<?xml version="1.0" encoding="UTF-8" standalone="no"?>
<!DOCTYPE svg PUBLIC "-//W3C//DTD SVG 1.1//EN" "http://www.w3.org/Graphics/SVG/1.1/DTD/svg11.dtd">
<svg version="1.1" xmlns="http://www.w3.org/2000/svg" xmlns:xlink="http://www.w3.org/1999/xlink" preserveAspectRatio="xMidYMid meet" viewBox="0 0 40 40" width="40" height="40"><defs><path d="M27.56 7.72L27.56 7.68L27.57 7.64L27.57 7.6L27.58 7.57L27.58 7.53L27.59 7.5L27.61 7.46L27.62 7.43L27.63 7.4L27.65 7.36L27.67 7.33L27.68 7.3L27.7 7.27L27.73 7.24L27.75 7.21L27.77 7.18L27.8 7.15L27.83 7.13L27.85 7.1L27.88 7.08L27.91 7.05L27.94 7.03L27.98 7.01L28.01 6.98L28.04 6.96L28.08 6.95L28.12 6.93L28.15 6.91L28.19 6.9L28.23 6.88L28.27 6.87L28.31 6.86L28.35 6.85L28.39 6.84L28.44 6.83L28.48 6.82L28.52 6.82L28.57 6.81L28.61 6.81L28.66 6.81L33.03 6.81L33.08 6.81L33.12 6.81L33.16 6.82L33.21 6.82L33.25 6.83L33.29 6.84L33.34 6.85L33.38 6.86L33.42 6.87L33.46 6.88L33.5 6.9L33.53 6.91L33.57 6.93L33.61 6.95L33.64 6.96L33.68 6.98L33.71 7.01L33.74 7.03L33.77 7.05L33.8 7.08L33.83 7.1L33.86 7.13L33.89 7.15L33.91 7.18L33.94 7.21L33.96 7.24L33.98 7.27L34 7.3L34.02 7.33L34.04 7.36L34.05 7.4L34.07 7.43L34.08 7.46L34.09 7.5L34.1 7.53L34.11 7.57L34.12 7.6L34.12 7.64L34.12 7.68L34.13 7.72L34.13 17.22L38.5 21.29L34.13 21.29L34.13 33.96L24.39 33.96L24.39 33.96L24.39 33.92L24.39 25.13L24.39 25.09L24.38 25.05L24.38 25.01L24.37 24.97L24.36 24.93L24.35 24.89L24.34 24.86L24.33 24.82L24.31 24.78L24.3 24.75L24.28 24.71L24.26 24.68L24.24 24.65L24.22 24.61L24.19 24.58L24.17 24.55L24.14 24.52L24.12 24.49L24.09 24.47L24.06 24.44L24.03 24.41L23.99 24.39L23.96 24.36L23.92 24.34L23.89 24.32L23.85 24.3L23.82 24.28L23.78 24.26L23.74 24.24L23.7 24.23L23.66 24.21L23.61 24.2L23.57 24.19L23.53 24.18L23.49 24.17L23.44 24.17L23.4 24.16L23.35 24.16L23.3 24.15L23.26 24.15L18.74 24.15L18.7 24.15L18.65 24.16L18.6 24.16L18.56 24.17L18.51 24.17L18.47 24.18L18.43 24.19L18.39 24.2L18.34 24.21L18.3 24.23L18.26 24.24L18.22 24.26L18.18 24.28L18.15 24.3L18.11 24.32L18.08 24.34L18.04 24.36L18.01 24.39L17.97 24.41L17.94 24.44L17.91 24.47L17.88 24.49L17.86 24.52L17.83 24.55L17.81 24.58L17.78 24.61L17.76 24.65L17.74 24.68L17.72 24.71L17.7 24.75L17.69 24.78L17.67 24.82L17.66 24.86L17.65 24.89L17.64 24.93L17.63 24.97L17.62 25.01L17.62 25.05L17.61 25.09L17.61 25.13L17.61 33.92L17.61 33.96L17.61 33.96L7.88 33.96L7.88 21.29L3.5 21.29L21 5L27.56 11.11L27.56 7.72Z" id="dfyBBS0QG"></path></defs><g><g><g><use xlink:href="#dfyBBS0QG" opacity="1" fill="#adff2f" fill-opacity="1"></use><g><use xlink:href="#dfyBBS0QG" opacity="1" fill-opacity="0" stroke="#adff2f" stroke-width="1" stroke-opacity="1"></use></g></g></g></g></svg>